<?xml version="1.0" encoding="utf-8"?>
<!-- Generator: Adobe Illustrator 23.0.0, SVG Export Plug-In . SVG Version: 6.00 Build 0)  -->
<svg version="1.1" id="Layer_1" xmlns:xodm="http://www.corel.com/coreldraw/odm/2003"
	 xmlns="http://www.w3.org/2000/svg" xmlns:xlink="http://www.w3.org/1999/xlink" x="0px" y="0px" viewBox="0 0 46.2 31.9"
	 style="enable-background:new 0 0 46.2 31.9;" xml:space="preserve">
<path d="M23.5,21.7c0,2.8-1.2,5.1-3.5,7.1c-2.2,1.8-4.8,2.8-7.7,2.8c-2.5,0-4.6-0.6-6.3-1.7c-2-1.3-3-3-3-5.2c0-0.5,0.1-1.1,0.2-1.8
	c0.1-0.7,0.2-1.3,0.2-1.8c0-0.5-0.1-0.9-0.3-1.4c-0.2-0.5-0.5-0.7-0.7-0.7c-0.5,0-1,0.3-1.5,0.8c-0.1,0.1-0.2,0.2-0.3,0.2
	c-0.4,0-0.5-0.2-0.3-0.5c1.6-2.5,3.4-3.7,5.6-3.7c2.3,0,3.8,0.9,4.7,2.8c0.3,0.8,0.7,2.5,1,5.2c0.2,1.9,0.7,2.8,1.6,2.8
	c1.3,0,2-1.1,2-3.4c0-1.9-0.9-3.9-2.8-5.9c-1.6-1.6-3-2.6-4.3-3c-0.1-0.1-0.2-0.2-0.2-0.3c0-0.2,0.1-0.3,0.2-0.4
	c3.4-1.5,6-3.6,7.7-6.2C14.8,7.4,13.7,8,12.1,9c-1.4,0.9-2.6,1.4-3.4,1.4c-1.4,0-2.6-0.6-3.5-1.7c-0.9-1.1-1.3-2.5-1.3-4
	c0-0.6,0.2-1.5,0.7-2.7C5,0.7,5.5,0,6,0c0.2,0,0.3,0.1,0.3,0.4c0,0.1-0.1,0.2-0.2,0.3C5.8,1.1,5.6,1.5,5.6,2.1
	c0,1.4,1.6,2.1,4.8,2.1c1.7,0,3.5-0.3,5.4-0.9c1.8-0.6,3.1-1.3,4-2.1c-0.1,1.2,0.2,2.4,0.8,3.8c0.6,1.3,0.9,2.2,0.9,2.6
	c0,0.2,0,0.3,0,0.5c0,0.7-0.8,1.7-2.4,3.2c-1.9,1.8-2.9,2.7-3,2.8c1.5,0.2,3,1,4.7,2.4C22.5,18,23.5,19.8,23.5,21.7L23.5,21.7z
	 M46.2,18.6c0,0.2-0.1,0.3-0.2,0.3c-0.1,0-0.2,0-0.4,0c-0.2,0-0.4,0-0.5,0c-1.9,0-3.8,0.6-5.9,1.8c-2.7,1.6-4.6,2.5-5.9,2.8
	c0.7,2.3,1.7,3.4,2.9,3.4c1.1,0,1.9-0.5,2.4-1.6c0.4-1,0.8-2,1.2-3c0.6-1.1,1.6-1.6,2.9-1.6c0.8,0,1.5,0.3,2.1,1
	c0.6,0.7,0.8,1.4,0.8,2.3c0,1.7-0.7,2.9-2.1,3.8c-0.5,0.3-1.9,0.9-4.2,1.8c-1.8,0.7-2.9,1.5-3.5,2.4c-0.5-0.9-1.7-1.8-3.5-2.7
	c-2.1-1.1-3.6-2-4.3-2.8c-1.4-1.5-2.1-3.5-2.1-6c0-2.7,1.1-5,3.3-6.9c2.1-1.8,4.6-2.7,7.5-2.7c3.8,0,6.5,1.9,8.3,5.6
	c0.1,0.3,0.4,0.7,0.8,1.2C46.1,18.2,46.2,18.5,46.2,18.6L46.2,18.6z M38.2,17.2c-0.3-1.6-0.9-2.4-1.7-2.4c-1,0-1.9,0.6-2.6,1.7
	c-0.6,1-0.9,2.1-1,3.5C34.3,19.5,36,18.6,38.2,17.2L38.2,17.2z"/>
</svg>
